<svg xmlns="http://www.w3.org/2000/svg" width="19.934" height="23.792" viewBox="0 0 19.934 23.792">
  <g id="marker" opacity="0.5">
    <path id="Path_10" data-name="Path 10" d="M11.965,6A3.965,3.965,0,1,0,15.93,9.965,3.965,3.965,0,0,0,11.965,6Zm0,5.947a1.982,1.982,0,1,1,1.982-1.982A1.982,1.982,0,0,1,11.965,11.947Z" transform="translate(-1.998 -0.051)"/>
    <path id="Path_11" data-name="Path 11" d="M11.912,23.789a5.225,5.225,0,0,1-4.273-2.181C3.861,16.4,1.945,12.481,1.945,9.965a9.967,9.967,0,1,1,19.934,0c0,2.516-1.916,6.433-5.694,11.644a5.225,5.225,0,0,1-4.273,2.181Zm0-21.628a7.814,7.814,0,0,0-7.8,7.8c0,1.992,1.876,5.677,5.282,10.374a3.117,3.117,0,0,0,5.045,0c3.406-4.7,5.282-8.382,5.282-10.374a7.814,7.814,0,0,0-7.8-7.8Z" transform="translate(-1.945 0.002)"/>
  </g>
</svg>
