<svg xmlns="http://www.w3.org/2000/svg" width="25.355" height="21.732" viewBox="0 0 25.355 21.732">
  <g id="Icon_ionic-ios-basket" data-name="Icon ionic-ios-basket" transform="translate(-2.249 -4.5)">
    <path id="Path_42" data-name="Path 42" d="M27.274,25.241h2.784l.99-4.267H27.274Z" transform="translate(-4.883 -3.215)" fill="#8a8a8a"/>
    <path id="Path_43" data-name="Path 43" d="M27.274,30.74H27.3A2.246,2.246,0,0,0,29.47,29.07l.34-1.466H27.274Z" transform="translate(-4.883 -4.508)" fill="#8a8a8a"/>
    <path id="Path_44" data-name="Path 44" d="M18.661,27.6H24.53v3.141H18.661Z" transform="translate(-3.202 -4.507)" fill="#8a8a8a"/>
    <path id="Path_45" data-name="Path 45" d="M5.033,25.241H7.806V20.974H4.043Z" transform="translate(-0.35 -3.215)" fill="#8a8a8a"/>
    <path id="Path_46" data-name="Path 46" d="M10.048,13.5h5.869v4.952H10.048Z" transform="translate(-1.522 -1.756)" fill="#8a8a8a"/>
    <path id="Path_47" data-name="Path 47" d="M18.661,13.5H24.53v4.952H18.661Z" transform="translate(-3.202 -1.756)" fill="#8a8a8a"/>
    <path id="Path_48" data-name="Path 48" d="M5.928,29.058a2.233,2.233,0,0,0,2.156,1.681h.028V27.6H5.583Z" transform="translate(-0.651 -4.507)" fill="#8a8a8a"/>
    <path id="Path_49" data-name="Path 49" d="M10.048,27.6h5.869v3.141H10.048Z" transform="translate(-1.522 -4.507)" fill="#8a8a8a"/>
    <path id="Path_50" data-name="Path 50" d="M18.661,20.974H24.53v4.267H18.661Z" transform="translate(-3.202 -3.215)" fill="#8a8a8a"/>
    <path id="Path_51" data-name="Path 51" d="M10.048,20.974h5.869v4.267H10.048Z" transform="translate(-1.522 -3.215)" fill="#8a8a8a"/>
    <path id="Path_52" data-name="Path 52" d="M26.7,11.744H23.987V6.311A1.816,1.816,0,0,0,22.176,4.5H7.677A1.816,1.816,0,0,0,5.866,6.311v5.433H3.155a.907.907,0,0,0-.883,1.109L3.387,16.7H7.456V6.877a.8.8,0,0,1,.792-.792H21.6a.8.8,0,0,1,.792.792V16.7h4.075l1.109-3.843A.907.907,0,0,0,26.7,11.744Z" fill="#8a8a8a"/>
  </g>
</svg>
