<svg xmlns="http://www.w3.org/2000/svg" width="49" height="30" viewBox="0 0 49 30">
  <g id="Group_17048" data-name="Group 17048" transform="translate(-18 -26)">
    <rect id="Rectangle" width="49" height="30" rx="4" transform="translate(18 26)" fill="#3a58f5"/>
    <g id="Money" transform="translate(33 31)">
      <path id="Shape" d="M10,20A10,10,0,1,1,20,10,10.011,10.011,0,0,1,10,20ZM6.211,12.087c.062,1.514,1.167,2.56,2.955,2.8v1.781h1.667V14.88c1.875-.256,2.95-1.348,2.949-3,0-1.472-.808-2.27-2.7-2.668L9.948,8.975C8.848,8.741,8.4,8.409,8.4,7.829c0-.711.642-1.171,1.635-1.171a1.571,1.571,0,0,1,1.731,1.236h1.848a2.969,2.969,0,0,0-2.78-2.764v-1.8H9.167v1.8A2.915,2.915,0,0,0,6.427,8c0,1.446.835,2.323,2.551,2.682l1.224.26c1.151.247,1.621.593,1.621,1.191,0,.709-.718,1.2-1.745,1.2-1.1,0-1.876-.491-1.966-1.25Z" fill="#fff"/>
    </g>
  </g>
</svg>
