<svg xmlns="http://www.w3.org/2000/svg" width="135.155" height="188.402" viewBox="0 0 135.155 188.402">
  <g id="Group_16957" data-name="Group 16957" transform="translate(-306.955 -164)">
    <path id="Path_11545" data-name="Path 11545" d="M386.932,164.458a61.283,61.283,0,0,0-5.484,5.868c-9.715,11.868-13.012,25.266-16.539,39.649-3.9,15.9-7.936,32.332-21.079,48.052-.321.383-.641.766-.972,1.148a94.142,94.142,0,0,1-14.482,13.388c5.475,7.039,10.79,14.565,15.682,22.2,11.45-7.762,19.069-15.972,24.438-24.411,7.655-12.032,10.73-24.53,13.755-36.861,3.527-14.379,7.173-29.249,17.9-42.523a73.489,73.489,0,0,1,12.316-11.958c1.445-1.118,2.944-2.208,4.511-3.267A65.869,65.869,0,0,0,386.932,164.458Z" transform="translate(-6.163 -0.132)" fill="#3a58f5"/>
    <path id="Path_11546" data-name="Path 11546" d="M362.443,382.186a4.992,4.992,0,0,0,0,9.983h50.618a4.992,4.992,0,1,0,0-9.983Z" transform="translate(-13.225 -62.78)" fill="#3a58f5"/>
    <path id="Path_11547" data-name="Path 11547" d="M368.921,403.145a22.59,22.59,0,0,0,44.266,0Z" transform="translate(-16.525 -68.811)" fill="#02f993"/>
    <path id="Path_11548" data-name="Path 11548" d="M432.033,188.023c-1.554.977-3.021,1.969-4.417,2.976-20,14.437-24.312,31.976-29.048,51.286-2.927,11.931-5.93,24.159-12.8,36.161a81.845,81.845,0,0,1-9.253,13.039,99.092,99.092,0,0,1-19.887,17.238c.387.645.782,1.289,1.162,1.933l.291.5v10.056h27.5c18.174-15.022,24.147-31.442,28.421-47.8.662-2.538,1.286-5.075,1.907-7.6,3.528-14.38,7.174-29.249,17.9-42.524a71.7,71.7,0,0,1,8.982-9.229c1.642-1.417,3.363-2.794,5.182-4.123A66.629,66.629,0,0,0,432.033,188.023Z" transform="translate(-11.684 -6.912)" fill="#02f993"/>
    <path id="Path_11549" data-name="Path 11549" d="M306.955,230.171a65.294,65.294,0,0,0,10.314,35.412,84.954,84.954,0,0,0,14.4-13.779c11.571-14.17,15.26-29.189,18.884-43.968,3.009-12.269,6.11-24.9,13.616-36.582a67.261,67.261,0,0,1,4.283-5.942q.534-.661,1.088-1.311A66.358,66.358,0,0,0,306.955,230.171Z" fill="#02f993"/>
    <path id="Path_11550" data-name="Path 11550" d="M467.8,230.276a67.262,67.262,0,0,0-6.352,5.591c-12.82,12.831-16.54,27.666-20.485,43.737-.03.123-.06.246-.09.369-4,16.29-8.127,33.134-22.051,49.2-1.232,1.422-2.539,2.818-3.9,4.192h18.432V323.9l.3-.5a338.385,338.385,0,0,1,22.728-33.282,65.4,65.4,0,0,0,14.187-40.88A66.064,66.064,0,0,0,467.8,230.276Z" transform="translate(-28.455 -19.07)" fill="#3a58f5"/>
  </g>
</svg>
