<svg xmlns="http://www.w3.org/2000/svg" width="23.833" height="23.832" viewBox="0 0 23.833 23.832">
  <g id="Group_17030" data-name="Group 17030" transform="translate(-7106.625 423.5)">
    <path id="Path_58" data-name="Path 58" d="M26.206,18.992a1.388,1.388,0,0,1,.189-.7,1.929,1.929,0,0,1,.12-.178A9.283,9.283,0,0,0,28.1,12.942a9.745,9.745,0,0,0-9.951-9.567,9.883,9.883,0,0,0-9.756,7.614,9.206,9.206,0,0,0-.212,1.959,9.718,9.718,0,0,0,9.8,9.688,11.8,11.8,0,0,0,2.7-.441c.647-.178,1.289-.412,1.455-.475a1.515,1.515,0,0,1,.533-.1,1.489,1.489,0,0,1,.579.115l3.248,1.151a.775.775,0,0,0,.223.057.456.456,0,0,0,.458-.458.736.736,0,0,0-.029-.155Z" transform="translate(7102.361 -426.875)" fill="#8a8a8a"/>
    <path id="Path_59" data-name="Path 59" d="M18.872,24.876c-.206.057-.47.12-.756.183a10.574,10.574,0,0,1-1.948.258,9.718,9.718,0,0,1-9.8-9.688A10.831,10.831,0,0,1,6.457,14.4c.034-.246.074-.493.132-.733.057-.258.126-.516.2-.768l-.458.407A8.526,8.526,0,0,0,3.375,19.72a8.431,8.431,0,0,0,1.421,4.7c.132.2.206.355.183.458S4.3,28.428,4.3,28.428a.46.46,0,0,0,.155.441.467.467,0,0,0,.292.1.411.411,0,0,0,.166-.034l3.214-1.266a.9.9,0,0,1,.687.011,9.642,9.642,0,0,0,3.477.687,9,9,0,0,0,6.88-3.157s.183-.252.4-.55C19.353,24.738,19.112,24.813,18.872,24.876Z" transform="translate(7103.25 -428.64)" fill="#8a8a8a"/>
  </g>
</svg>
