<svg xmlns="http://www.w3.org/2000/svg" width="18" height="15.723" viewBox="0 0 18 15.723">
  <g id="credit-card" transform="translate(-0.764 -4.85)">
    <path id="Path_11946" data-name="Path 11946" d="M43.621,41.43H37.989a.279.279,0,1,0,0,.558h5.632a.279.279,0,1,0,0-.558Z" transform="translate(-26.631 -26.367)" fill="#3a58f5"/>
    <path id="Path_11947" data-name="Path 11947" d="M43.621,37.08H37.989a.279.279,0,0,0,0,.558h5.632a.279.279,0,0,0,0-.558Z" transform="translate(-26.631 -23.231)" fill="#3a58f5"/>
    <path id="Path_11948" data-name="Path 11948" d="M53.834,32.73H52.159a.279.279,0,0,0,0,.558h1.675a.279.279,0,0,0,0-.558Z" transform="translate(-36.844 -20.096)" fill="#3a58f5"/>
    <path id="Path_11949" data-name="Path 11949" d="M40.6,33.288h1.762a.279.279,0,1,0,0-.558H40.6a.279.279,0,1,0,0,.558Z" transform="translate(-28.512 -20.096)" fill="#3a58f5"/>
    <path id="Path_11950" data-name="Path 11950" d="M31.014,32.73H29.339a.279.279,0,1,0,0,.558h1.675a.279.279,0,0,0,0-.558Z" transform="translate(-20.396 -20.096)" fill="#3a58f5"/>
    <path id="Path_11951" data-name="Path 11951" d="M16.9,33.32H14.629a.28.28,0,0,0-.279.279v2.267a.28.28,0,0,0,.279.279H16.9a.28.28,0,0,0,.279-.279V33.6A.276.276,0,0,0,16.9,33.32Zm-.279,2.264H14.908V33.876h1.709Z" transform="translate(-9.793 -20.521)" fill="#3a58f5"/>
    <path id="Path_11952" data-name="Path 11952" d="M18.012,10.817h-.519L15.762,5.372a.751.751,0,0,0-.944-.486L1.287,9.183a.753.753,0,0,0-.489.944L3.063,17.25v2.572a.753.753,0,0,0,.751.751h14.2a.753.753,0,0,0,.751-.751V11.568a.75.75,0,0,0-.751-.751Zm-1.106,0h-.983l-.229-.726a.3.3,0,0,0-.137-.165.267.267,0,0,0-.212-.017l-2.161.687a.281.281,0,0,0-.162.137.273.273,0,0,0-.025.081H8.2L16.108,8.3Zm-1.569,0h-1l.91-.29ZM3.622,17.481H18.2V18.5H3.622Zm-.558-5.914v.293l-1.025.324-.31-.972L15.628,6.8l.05.156.26.815L6.35,10.817H3.814a.751.751,0,0,0-.751.751ZM1.458,9.716l13.533-4.3a.188.188,0,0,1,.145.011.2.2,0,0,1,.095.112l.232.726-13.9,4.417-.229-.726a.189.189,0,0,1,.123-.24Zm1.605,2.731v2.96l-.854-2.689ZM18.2,19.821a.193.193,0,0,1-.193.193H3.814a.193.193,0,0,1-.193-.193v-.759H18.2Zm-14.583-2.9V11.568a.193.193,0,0,1,.193-.193h14.2a.193.193,0,0,1,.193.193v5.358H3.622Z" transform="translate(0)" fill="#3a58f5"/>
  </g>
</svg>
