<svg xmlns="http://www.w3.org/2000/svg" width="18" height="18" viewBox="0 0 18 18">
  <path id="Path_22" data-name="Path 22" d="M17.3,3.8H15.5V2.9a.9.9,0,0,0-1.8,0v.9H8.3V2.9a.9.9,0,1,0-1.8,0v.9H4.7A2.7,2.7,0,0,0,2,6.5V17.3A2.7,2.7,0,0,0,4.7,20H17.3A2.7,2.7,0,0,0,20,17.3V6.5a2.7,2.7,0,0,0-2.7-2.7Zm.9,13.5a.9.9,0,0,1-.9.9H4.7a.9.9,0,0,1-.9-.9V11H18.2Zm0-8.1H3.8V6.5a.9.9,0,0,1,.9-.9H6.5v.9a.9.9,0,1,0,1.8,0V5.6h5.4v.9a.9.9,0,0,0,1.8,0V5.6h1.8a.9.9,0,0,1,.9.9Z" transform="translate(-2 -2)" fill="#3a58f5"/>
</svg>
