<svg xmlns="http://www.w3.org/2000/svg" width="12.88" height="26" viewBox="0 0 12.88 26">
  <g id="Icon_map-female" data-name="Icon map-female" transform="translate(-7.902 -0.36)">
    <path id="Path_40" data-name="Path 40" d="M17.923,2.571A2.211,2.211,0,1,1,15.711.36a2.211,2.211,0,0,1,2.211,2.211Z" transform="translate(-1.43)" fill="#3a58f5"/>
    <path id="Path_41" data-name="Path 41" d="M19.663,18.994l-3.168-8.7-.018-.09a.235.235,0,0,1,.24-.23.239.239,0,0,1,.233.176L19.1,15.777a1.367,1.367,0,0,0,1.119.536c.517,0,.571-1.016.56-1.072L18.628,9.689A3.075,3.075,0,0,0,15.75,7.2H12.944A3.181,3.181,0,0,0,9.973,9.689L7.916,15.241c-.047.107,0,1.072.559,1.072.435,0,1.013-.152,1.119-.536l2.077-5.655A.24.24,0,0,1,11.9,9.97a.234.234,0,0,1,.239.229l-.015.082L9.035,18.994c-.006.026,0,.51,0,.536,0,.185.448.536.642.536h1.991v7.02a1.073,1.073,0,0,0,2.144,0V20.061c0-.152,1.072-.147,1.072,0v6.969a1.072,1.072,0,0,0,2.144,0V20.066H19.1a.8.8,0,0,0,.56-.536C19.663,19.487,19.678,19.031,19.663,18.994Z" transform="translate(0 -1.747)" fill="#3a58f5"/>
  </g>
</svg>
