<svg xmlns="http://www.w3.org/2000/svg" xmlns:xlink="http://www.w3.org/1999/xlink" width="24" height="24" viewBox="0 0 24 24">
  <defs>
    <clipPath id="clip-path">
      <rect id="Rectangle_107" data-name="Rectangle 107" width="24" height="24" transform="translate(61 473)" fill="#fff"/>
    </clipPath>
  </defs>
  <g id="Mask_Group_9" data-name="Mask Group 9" transform="translate(-61 -473)" clip-path="url(#clip-path)">
    <g id="interrogation" transform="translate(61 473)">
      <path id="Path_28" data-name="Path 28" d="M12,0A12,12,0,1,0,24,12,12,12,0,0,0,12,0Zm0,22A10,10,0,1,1,22,12,10,10,0,0,1,12,22Z"/>
      <path id="Path_29" data-name="Path 29" d="M12.717,5.063A4,4,0,0,0,8,9a1,1,0,1,0,2,0,2,2,0,0,1,2.371-1.967,2.024,2.024,0,0,1,1.6,1.6,2,2,0,0,1-1,2.125A3.954,3.954,0,0,0,11,14.257V15a1,1,0,0,0,2,0v-.743a1.982,1.982,0,0,1,.93-1.752,4,4,0,0,0-1.213-7.442Z"/>
      <rect id="Rectangle_108" data-name="Rectangle 108" width="2" height="2" rx="1" transform="translate(11 17)"/>
    </g>
  </g>
</svg>
