<svg xmlns="http://www.w3.org/2000/svg" xmlns:xlink="http://www.w3.org/1999/xlink" width="24" height="24" viewBox="0 0 24 24">
  <defs>
    <clipPath id="clip-path">
      <rect id="Rectangle_106" data-name="Rectangle 106" width="24" height="24" transform="translate(61 410)" fill="#fff"/>
    </clipPath>
  </defs>
  <g id="Mask_Group_8" data-name="Mask Group 8" transform="translate(-61 -410)" clip-path="url(#clip-path)">
    <g id="exit_1_" data-name="exit (1)" transform="translate(61.002 410)">
      <path id="Path_26" data-name="Path 26" d="M24.079,10.425,20.2,6.546A1,1,0,0,0,18.786,7.96l3.879,3.879a2.057,2.057,0,0,1,.3.39c-.015,0-.027-.008-.042-.008h0l-15.684.032a1,1,0,1,0,0,2h0l15.678-.032c.028,0,.051-.014.078-.016a2,2,0,0,1-.334.462l-3.879,3.879a1,1,0,0,0,1.389,1.439l.025-.025,3.879-3.879a4,4,0,0,0,0-5.656Z" transform="translate(-1.25 -1.253)"/>
      <path id="Path_27" data-name="Path 27" d="M7,22H5a3,3,0,0,1-3-3V5A3,3,0,0,1,5,2H7A1,1,0,0,0,7,0H5A5.006,5.006,0,0,0,0,5V19a5.006,5.006,0,0,0,5,5H7a1,1,0,1,0,0-2Z" transform="translate(-0.002)"/>
    </g>
  </g>
</svg>
