<svg xmlns="http://www.w3.org/2000/svg" width="24" height="24.009" viewBox="0 0 24 24.009">
  <path id="Path_3" data-name="Path 3" d="M24.379,16.2,21.651,6.829A9.733,9.733,0,0,0,11.972,0,9.673,9.673,0,0,0,2.678,7.3L.569,16.35a2.894,2.894,0,0,0,.618,2.527A3.208,3.208,0,0,0,3.641,20H7.425a5.191,5.191,0,0,0,5.141,4.005A5.191,5.191,0,0,0,17.707,20h3.641a3.2,3.2,0,0,0,2.5-1.184A2.889,2.889,0,0,0,24.38,16.2ZM12.566,22a3.141,3.141,0,0,1-2.954-2H15.52a3.141,3.141,0,0,1-2.954,2Zm9.616-4.4a1.06,1.06,0,0,1-.839.4H3.641a1.069,1.069,0,0,1-.818-.374.965.965,0,0,1-.206-.843l2.11-9.05A7.6,7.6,0,0,1,12.023,2a7.645,7.645,0,0,1,7.6,5.358l2.728,9.371a.956.956,0,0,1-.171.873Z" transform="translate(-0.494 0.004)" fill="#fff"/>
</svg>
