<svg id="Group" xmlns="http://www.w3.org/2000/svg" width="29" height="34" viewBox="0 0 29 34">
  <g id="social-color-1-logo-paypal">
    <path id="Shape" d="M5.439,0h9.68c5.2,0,7.153,2.607,6.851,6.442-.5,6.323-4.357,9.82-9.474,9.82H9.912c-.7,0-1.173.459-1.364,1.708L7.439,25.219c-.072.471-.322.747-.7.781H.672C.1,26-.1,25.567.047,24.629L3.754,1.376A1.476,1.476,0,0,1,5.439,0Z" transform="translate(7 8)" fill="#009de2"/>
    <path id="Shape-2" data-name="Shape" d="M6.263,0h9.622c2.71,0,5.924.087,8.074,1.97a6.442,6.442,0,0,1,2.016,5.413c-.59,7.3-4.985,11.381-10.878,11.381H10.352c-.808,0-1.343.531-1.571,1.971L7.456,29.1c-.086.543-.323.862-.755.9H.774c-.658,0-.892-.5-.719-1.581L4.323,1.587A1.7,1.7,0,0,1,6.263,0Z" fill="#113984"/>
    <path id="Shape-3" data-name="Shape" d="M0,12,1.7,1.377A1.478,1.478,0,0,1,3.384,0h9.7A9.554,9.554,0,0,1,17,.705c-.974,6.531-5.241,10.16-10.829,10.16H1.384A1.4,1.4,0,0,0,0,12Z" transform="translate(9 8)" fill="#172c70"/>
  </g>
</svg>
