<svg xmlns="http://www.w3.org/2000/svg" xmlns:xlink="http://www.w3.org/1999/xlink" width="19.457" height="16.931" viewBox="0 0 19.457 16.931">
  <defs>
    <clipPath id="clip-path">
      <path id="Path_2" data-name="Path 2" d="M.308,1.6A1,1,0,0,1,1.62.285L19.048,7.751a1,1,0,0,1,0,1.839L1.593,17.048a1,1,0,0,1-1.313-1.31L2.67,10.106A1,1,0,0,1,3.542,9.5h0c.929-.045.941-1.819.012-1.877l-.044,0a1,1,0,0,1-.856-.6Z" transform="translate(0 0.25)" fill="#6179f7"/>
    </clipPath>
  </defs>
  <g id="_22_Icons_Line_Camera" data-name="22) Icons/Line/Camera" transform="translate(-0.197 -0.451)">
    <path id="Path_2-2" data-name="Path 2" d="M.308,1.6A1,1,0,0,1,1.62.285L19.048,7.751a1,1,0,0,1,0,1.839L1.593,17.048a1,1,0,0,1-1.313-1.31L2.67,10.106A1,1,0,0,1,3.542,9.5h0c.929-.045.941-1.819.012-1.877l-.044,0a1,1,0,0,1-.856-.6Z" transform="translate(0 0.25)" fill="#6179f7"/>
  </g>
</svg>
