<svg xmlns="http://www.w3.org/2000/svg" width="24" height="24" viewBox="0 0 24 24">
  <g id="mode-portrait" opacity="0.5">
    <path id="Path_32" data-name="Path 32" d="M21,21H16v3h5.546A2.457,2.457,0,0,0,24,21.545V16H21Z"/>
    <path id="Path_33" data-name="Path 33" d="M3,3H8V0H2.455A2.457,2.457,0,0,0,0,2.455V8H3Z"/>
    <path id="Path_34" data-name="Path 34" d="M3,16H0v5.545A2.457,2.457,0,0,0,2.455,24H8V21H3Z"/>
    <path id="Path_35" data-name="Path 35" d="M21.546,0H16V3h5V8h3V2.455A2.457,2.457,0,0,0,21.546,0Z"/>
    <line id="Line_7" data-name="Line 7" x2="14" transform="translate(4.5 12.5)" fill="none" stroke="#000" stroke-linecap="square" stroke-width="3"/>
  </g>
</svg>
