<svg id="Group" xmlns="http://www.w3.org/2000/svg" width="45" height="12" viewBox="0 0 45 12">
  <path id="Shape" d="M26.089,12A13.393,13.393,0,0,1,22,11.38l.511-2.609L23,8.957a8.679,8.679,0,0,0,3.442.621c1.049,0,2.182-.359,2.2-1.137,0-.5-.483-.875-1.9-1.443C25.35,6.438,23.5,5.511,23.524,3.843,23.543,1.585,26.089,0,29.714,0A10.93,10.93,0,0,1,33,.493l-.5,2.513-.328-.128a7.507,7.507,0,0,0-2.73-.441c-1.443,0-2.091.509-2.109,1,0,.546.785.905,2.072,1.436,2.109.831,3.1,1.84,3.077,3.163C32.452,10.438,29.955,12,26.119,12Zm15.557,0s-.325-1.374-.433-1.8H36.562c-.135.317-.757,1.8-.757,1.8H32L37.382,1a1.827,1.827,0,0,1,1.893-1h2.8L45,12ZM16,12,18.306,0H22L19.685,12ZM7.218,12,3.905,1.562A16.453,16.453,0,0,0,0,.239L.065,0H6.053c.814.031,1.471.248,1.684,1.013l1.3,5.521L9.43,8.2,13.067,0H17L11.151,12Z" fill="#2014c9"/>
</svg>
